<svg xmlns="http://www.w3.org/2000/svg" viewBox="0 0 1024 1024" role="img" aria-label="Dennis Schmidt">
  <rect width="1024" height="1024" fill="#0a0a0f"/>
  <g transform="translate(269 880) scale(1 -1)" fill="#f5f0e8">
    <path d="M90 -9Q53 -9 33.0 22.0Q13 53 13 113Q13 170 29.0 227.5Q45 285 73.0 337.0Q101 389 136.5 429.0Q172 469 211.5 492.5Q251 516 290 516Q317 516 337 502Q351 493 354 508L386 640Q391 658 386.5 665.0Q382 672 368 673L338 676Q323 677 325 689Q327 698 339 700Q375 706 403.0 714.5Q431 723 448 737Q456 743 463 743Q475 743 472 728L330 113Q315 48 350 48Q373 48 391.5 79.0Q410 110 429 175Q432 186 442 186Q449 186 451.0 180.0Q453 174 451 166Q432 72 398.5 31.5Q365 -9 320 -9Q281 -9 264.5 24.0Q248 57 261 114L272 160Q274 167 269.5 168.0Q265 169 262 163Q214 69 171.0 30.0Q128 -9 90 -9ZM114 42Q138 42 167.0 71.0Q196 100 224.5 146.0Q253 192 277.0 245.0Q301 298 315.5 347.0Q330 396 330 430Q330 491 287 491Q261 491 232.0 467.5Q203 444 176.5 404.0Q150 364 128.5 313.5Q107 263 94.0 208.5Q81 154 81 102Q81 67 90.5 54.5Q100 42 114 42Z"/>
  </g>
  <circle cx="770" cy="750" r="80" fill="#d4ff3d"/>
</svg>
